<svg width="17" height="21" viewBox="0 0 17 21" fill="none" xmlns="http://www.w3.org/2000/svg">
<g clip-path="url(#clip0_54_29)">
<path d="M7.5727 19.302C8.0854 19.8147 8.91802 19.8147 9.43071 19.302L15.9932 12.7395C16.5059 12.2268 16.5059 11.3941 15.9932 10.8814C15.4805 10.3688 14.6479 10.3688 14.1352 10.8814L9.81216 15.2086V2.625C9.81216 1.89902 9.22563 1.3125 8.49966 1.3125C7.77368 1.3125 7.18716 1.89902 7.18716 2.625V15.2045L2.86411 10.8855C2.35142 10.3729 1.5188 10.3729 1.0061 10.8855C0.493408 11.3982 0.493408 12.2309 1.0061 12.7436L7.5686 19.3061L7.5727 19.302Z" fill="#0E1620"/>
</g>
<defs>
<clipPath id="clip0_54_29">
<rect width="15.75" height="21" fill="white" transform="translate(0.625)"/>
</clipPath>
</defs>
</svg>
