<svg width="25" height="21" viewBox="0 0 25 21" fill="none" xmlns="http://www.w3.org/2000/svg">
<g clip-path="url(#clip0_54_34)">
<path d="M13.3589 0.984375V1.41504C13.6214 1.46426 13.8757 1.52578 14.1054 1.5873C14.6304 1.72676 14.9421 2.26816 14.8026 2.79316C14.6632 3.31816 14.1218 3.62988 13.5968 3.49043C13.1497 3.37148 12.7313 3.28945 12.3581 3.28535C12.0587 3.28125 11.7552 3.35508 11.5624 3.46582C11.4763 3.51914 11.4353 3.56426 11.4188 3.58887C11.4065 3.60938 11.3901 3.63809 11.3901 3.70371C11.3901 3.71602 11.3901 3.72422 11.3901 3.72832C11.3983 3.73652 11.4271 3.77754 11.5255 3.83496C11.7634 3.97852 12.1161 4.08926 12.6493 4.24922L12.6862 4.26152C13.1415 4.39688 13.7485 4.58145 14.2407 4.88906C14.8026 5.2418 15.3112 5.82832 15.3235 6.73066C15.3358 7.65352 14.856 8.32617 14.2284 8.71992C13.9536 8.88809 13.6583 9.00703 13.3548 9.08086V9.51562C13.3548 10.0611 12.9159 10.5 12.3704 10.5C11.8249 10.5 11.386 10.0611 11.386 9.51562V9.04805C10.9964 8.95371 10.6396 8.83066 10.336 8.72813C10.2499 8.69941 10.1679 8.6707 10.0899 8.64609C9.57314 8.47383 9.29424 7.91602 9.4665 7.39922C9.63877 6.88242 10.1966 6.60352 10.7134 6.77578C10.82 6.8127 10.9185 6.84551 11.0128 6.87832C11.5706 7.06699 11.9726 7.20234 12.4032 7.21875C12.7313 7.23105 13.0226 7.15312 13.1907 7.05059C13.2687 7.00137 13.3056 6.96035 13.322 6.93164C13.3384 6.90703 13.3589 6.85781 13.3548 6.76348V6.75527C13.3548 6.71426 13.3548 6.66914 13.1907 6.5666C12.9569 6.41895 12.6042 6.3041 12.0792 6.14414L12.0013 6.11953C11.5583 5.98828 10.9759 5.81191 10.5083 5.52891C9.95459 5.19668 9.42139 4.62656 9.41728 3.72012C9.41318 2.78086 9.94639 2.13691 10.5534 1.77598C10.8159 1.62012 11.0989 1.51348 11.3819 1.43965L11.3901 0.984375C11.3901 0.438867 11.829 0 12.3745 0C12.92 0 13.3589 0.438867 13.3589 0.984375ZM23.8671 13.7936C24.4044 14.5236 24.2485 15.549 23.5185 16.0863L18.3259 19.9131C17.3661 20.6186 16.2095 21 15.0159 21H8.43701H1.87451C1.14854 21 0.562012 20.4135 0.562012 19.6875V17.0625C0.562012 16.3365 1.14854 15.75 1.87451 15.75H3.38389L5.22549 14.2734C6.15654 13.527 7.31318 13.125 8.50674 13.125H11.7183H12.3745H14.9995C15.7255 13.125 16.312 13.7115 16.312 14.4375C16.312 15.1635 15.7255 15.75 14.9995 15.75H12.3745H11.7183C11.3573 15.75 11.062 16.0453 11.062 16.4062C11.062 16.7672 11.3573 17.0625 11.7183 17.0625H16.6647L21.5743 13.4449C22.3044 12.9076 23.3298 13.0635 23.8671 13.7936ZM8.50264 15.75H8.46572C8.47803 15.75 8.49033 15.75 8.50264 15.75Z" fill="#0E1620"/>
</g>
<defs>
<clipPath id="clip0_54_34">
<rect width="23.625" height="21" fill="white" transform="translate(0.5625)"/>
</clipPath>
</defs>
</svg>
