<svg width="22" height="21" viewBox="0 0 22 21" fill="none" xmlns="http://www.w3.org/2000/svg">
<path d="M21.2913 10.7517C21.2913 10.0425 21.2227 9.31052 21.1083 8.62427H11.2031V12.6732H16.8763C16.6476 13.9771 15.8927 15.1208 14.7717 15.8528L18.1574 18.4835C20.1476 16.6306 21.2913 13.9313 21.2913 10.7517Z" fill="#4280EF"/>
<path d="M11.2033 21C14.0399 21 16.419 20.0621 18.1575 18.4608L14.7719 15.853C13.834 16.4935 12.6216 16.8595 11.2033 16.8595C8.4582 16.8595 6.14774 15.0067 5.30134 12.5361L1.82422 15.2125C3.60853 18.7582 7.2229 21 11.2033 21Z" fill="#34A353"/>
<path d="M5.3013 12.5132C4.86666 11.2093 4.86666 9.791 5.3013 8.48712L1.82418 5.78784C0.337253 8.76162 0.337253 12.2615 1.82418 15.2124L5.3013 12.5132Z" fill="#F6B704"/>
<path d="M11.2033 4.16369C12.6902 4.14081 14.1543 4.71269 15.2294 5.74208L18.2262 2.72255C16.3275 0.938283 13.8111 -0.022476 11.2033 0.000399239C7.2229 0.000399239 3.60853 2.24217 1.82422 5.78783L5.30134 8.48711C6.14774 5.99371 8.4582 4.16369 11.2033 4.16369Z" fill="#E54335"/>
</svg>
