<svg width="24" height="33" viewBox="0 0 24 33" fill="none" xmlns="http://www.w3.org/2000/svg">
<g clip-path="url(#clip0_54_106)">
<path d="M13.4812 31.7C16.6875 27.6875 24 17.9625 24 12.5C24 5.875 18.625 0.5 12 0.5C5.375 0.5 0 5.875 0 12.5C0 17.9625 7.3125 27.6875 10.5188 31.7C11.2875 32.6563 12.7125 32.6563 13.4812 31.7ZM12 8.5C13.0609 8.5 14.0783 8.92143 14.8284 9.67157C15.5786 10.4217 16 11.4391 16 12.5C16 13.5609 15.5786 14.5783 14.8284 15.3284C14.0783 16.0786 13.0609 16.5 12 16.5C10.9391 16.5 9.92172 16.0786 9.17157 15.3284C8.42143 14.5783 8 13.5609 8 12.5C8 11.4391 8.42143 10.4217 9.17157 9.67157C9.92172 8.92143 10.9391 8.5 12 8.5Z" fill="#F5F8FA"/>
</g>
<defs>
<clipPath id="clip0_54_106">
<rect width="24" height="32" fill="white" transform="translate(0 0.5)"/>
</clipPath>
</defs>
</svg>
