<svg width="21" height="21" viewBox="0 0 21 21" fill="none" xmlns="http://www.w3.org/2000/svg">
<g clip-path="url(#clip0_54_125)">
<path d="M1.12901 10.6642C0.246197 11.1681 0.328228 12.5119 1.26963 12.9025L6.7501 15.1876V19.2228C6.7501 19.9298 7.32042 20.5001 8.02745 20.5001C8.40635 20.5001 8.76573 20.3322 9.00792 20.0392L11.4298 17.1369L16.2696 19.1525C17.0079 19.4611 17.8634 18.9767 17.9845 18.1876L20.4845 1.93765C20.5587 1.46499 20.3517 0.988431 19.9571 0.718899C19.5626 0.449368 19.047 0.425931 18.629 0.664212L1.12901 10.6642ZM3.16417 11.6603L16.504 4.03921L7.92588 13.6251L7.97276 13.6642L3.16417 11.6603ZM16.254 17.1173L9.7462 14.4025L18.1095 5.05484L16.254 17.1173Z" fill="#F5F8FA"/>
</g>
<defs>
<clipPath id="clip0_54_125">
<rect width="20" height="20" fill="white" transform="translate(0.5 0.5)"/>
</clipPath>
</defs>
</svg>
