<svg width="36" height="40" viewBox="0 0 36 40" fill="none" xmlns="http://www.w3.org/2000/svg">
<g clip-path="url(#clip0_18_82)">
<path d="M8.21094 35H0.953125V11.6328H8.21094V35ZM4.57812 8.44531C2.25781 8.44531 0.375 6.52344 0.375 4.20312C0.375 3.08839 0.817828 2.01931 1.60607 1.23107C2.39431 0.442828 3.46339 0 4.57812 0C5.69286 0 6.76194 0.442828 7.55018 1.23107C8.33842 2.01931 8.78125 3.08839 8.78125 4.20312C8.78125 6.52344 6.89844 8.44531 4.57812 8.44531ZM35.3672 35H28.125V23.625C28.125 20.9141 28.0703 17.4375 24.3516 17.4375C20.5781 17.4375 20 20.3828 20 23.4297V35H12.75V11.6328H19.7109V14.8203H19.8125C20.7812 12.9844 23.1484 11.0469 26.6797 11.0469C34.0234 11.0469 35.375 15.8828 35.375 22.1641V35H35.3672Z" fill="#0E1620" fill-opacity="0.5"/>
</g>
<defs>
<clipPath id="clip0_18_82">
<rect width="35" height="40" fill="white" transform="translate(0.375)"/>
</clipPath>
</defs>
</svg>
