<svg width="36" height="40" viewBox="0 0 36 40" fill="none" xmlns="http://www.w3.org/2000/svg">
<g clip-path="url(#clip0_18_86)">
<path d="M17.8828 11.0156C12.9141 11.0156 8.90625 15.0234 8.90625 19.9922C8.90625 24.9609 12.9141 28.9687 17.8828 28.9687C22.8516 28.9687 26.8594 24.9609 26.8594 19.9922C26.8594 15.0234 22.8516 11.0156 17.8828 11.0156ZM17.8828 25.8281C14.6719 25.8281 12.0469 23.2109 12.0469 19.9922C12.0469 16.7734 14.6641 14.1562 17.8828 14.1562C21.1016 14.1562 23.7188 16.7734 23.7188 19.9922C23.7188 23.2109 21.0938 25.8281 17.8828 25.8281ZM29.3203 10.6484C29.3203 11.8125 28.3828 12.7422 27.2266 12.7422C26.0625 12.7422 25.1328 11.8047 25.1328 10.6484C25.1328 9.49219 26.0703 8.55469 27.2266 8.55469C28.3828 8.55469 29.3203 9.49219 29.3203 10.6484ZM35.2656 12.7734C35.1328 9.96875 34.4922 7.48438 32.4375 5.4375C30.3906 3.39062 27.9063 2.75 25.1016 2.60937C22.2109 2.44531 13.5469 2.44531 10.6562 2.60937C7.85938 2.74219 5.375 3.38281 3.32031 5.42969C1.26563 7.47656 0.632812 9.96094 0.492187 12.7656C0.328125 15.6562 0.328125 24.3203 0.492187 27.2109C0.625 30.0156 1.26563 32.5 3.32031 34.5469C5.375 36.5938 7.85156 37.2344 10.6562 37.375C13.5469 37.5391 22.2109 37.5391 25.1016 37.375C27.9063 37.2422 30.3906 36.6016 32.4375 34.5469C34.4844 32.5 35.125 30.0156 35.2656 27.2109C35.4297 24.3203 35.4297 15.6641 35.2656 12.7734ZM31.5312 30.3125C30.9219 31.8438 29.7422 33.0234 28.2031 33.6406C25.8984 34.5547 20.4297 34.3438 17.8828 34.3438C15.3359 34.3438 9.85938 34.5469 7.5625 33.6406C6.03125 33.0312 4.85156 31.8516 4.23438 30.3125C3.32031 28.0078 3.53125 22.5391 3.53125 19.9922C3.53125 17.4453 3.32813 11.9688 4.23438 9.67188C4.84375 8.14062 6.02344 6.96094 7.5625 6.34375C9.86719 5.42969 15.3359 5.64062 17.8828 5.64062C20.4297 5.64062 25.9063 5.4375 28.2031 6.34375C29.7344 6.95312 30.9141 8.13281 31.5312 9.67188C32.4453 11.9766 32.2344 17.4453 32.2344 19.9922C32.2344 22.5391 32.4453 28.0156 31.5312 30.3125Z" fill="#0E1620" fill-opacity="0.5"/>
</g>
<defs>
<clipPath id="clip0_18_86">
<rect width="35" height="40" fill="white" transform="translate(0.375)"/>
</clipPath>
</defs>
</svg>
