<svg width="41" height="40" viewBox="0 0 41 40" fill="none" xmlns="http://www.w3.org/2000/svg">
<path d="M20.375 0.625C9.69531 0.625 1 9.32031 1 20C1 30.6797 9.69531 39.375 20.375 39.375C31.0547 39.375 39.75 30.6797 39.75 20C39.75 9.32031 31.0547 0.625 20.375 0.625ZM33.1875 9.5625C35.4922 12.375 36.8906 15.9688 36.9219 19.875C36.375 19.7578 30.9062 18.6484 25.3984 19.3438C24.9453 18.25 24.5234 17.2812 23.9453 16.0938C30.0625 13.5938 32.8359 10.0391 33.1875 9.57031V9.5625ZM31.3438 7.64844C31.0469 8.07031 28.5547 11.4219 22.6719 13.625C19.9609 8.64062 16.9531 4.54688 16.5 3.9375C21.75 2.67188 27.2812 4.03906 31.3516 7.64844H31.3438ZM13.3359 5.04688C13.7734 5.64844 16.7266 9.74219 19.4688 14.6172C11.7266 16.6719 4.90625 16.6406 4.17188 16.6328C5.25 11.5 8.71094 7.23438 13.3359 5.04688ZM3.82812 20.0234C3.82812 19.8516 3.82812 19.6875 3.83594 19.5156C4.5625 19.5312 12.5781 19.6328 20.8438 17.1641C21.3203 18.0938 21.7734 19.0312 22.1875 19.9688C16.2031 21.6562 10.7656 26.4922 8.08594 31.0859C5.4375 28.1562 3.82812 24.2734 3.82812 20.0234ZM10.2188 33.0781C11.9453 29.5469 16.6406 24.9844 23.3125 22.7031C25.6328 28.7422 26.5937 33.8047 26.8438 35.25C21.5234 37.5156 15.125 36.8984 10.2188 33.0703V33.0781ZM29.625 33.7422C29.4531 32.7344 28.5781 27.8906 26.4062 21.9453C31.5938 21.1172 36.1484 22.4766 36.7109 22.6562C35.9766 27.2578 33.3281 31.2344 29.6172 33.75L29.625 33.7422Z" fill="#0E1620" fill-opacity="0.5"/>
</svg>
