<svg width="41" height="40" viewBox="0 0 41 40" fill="none" xmlns="http://www.w3.org/2000/svg">
<path d="M20.375 0C9.33468 0 0.375 8.95968 0.375 20C0.375 31.0403 9.33468 40 20.375 40C31.4153 40 40.375 31.0403 40.375 20C40.375 8.95968 31.4153 0 20.375 0ZM28.496 29.4274C28.1573 29.4274 27.9476 29.3226 27.6331 29.1371C22.6008 26.1048 16.746 25.9758 10.9637 27.1613C10.6492 27.2419 10.2379 27.371 10.004 27.371C9.22177 27.371 8.72984 26.75 8.72984 26.0968C8.72984 25.2661 9.22177 24.871 9.82661 24.7419C16.4315 23.2823 23.1815 23.4113 28.9395 26.8548C29.4315 27.1694 29.7218 27.4516 29.7218 28.1855C29.7218 28.9194 29.1492 29.4274 28.496 29.4274ZM30.6653 24.1371C30.246 24.1371 29.9637 23.9516 29.6734 23.7984C24.6331 20.8145 17.1169 19.6129 10.4315 21.4274C10.0444 21.5323 9.83468 21.6371 9.47177 21.6371C8.60887 21.6371 7.90726 20.9355 7.90726 20.0726C7.90726 19.2097 8.32661 18.6371 9.15726 18.4032C11.3992 17.7742 13.6895 17.3065 17.0444 17.3065C22.2782 17.3065 27.3347 18.6048 31.3185 20.9758C31.9718 21.3629 32.2298 21.8629 32.2298 22.5645C32.2218 23.4355 31.5444 24.1371 30.6653 24.1371ZM33.1653 17.9919C32.746 17.9919 32.4879 17.8871 32.125 17.6774C26.3831 14.25 16.1169 13.4274 9.47177 15.2823C9.18145 15.3629 8.81855 15.4919 8.43145 15.4919C7.36694 15.4919 6.55242 14.6613 6.55242 13.5887C6.55242 12.4919 7.22984 11.871 7.95565 11.6613C10.7944 10.8306 13.9718 10.4355 17.4315 10.4355C23.3185 10.4355 29.4879 11.6613 33.996 14.2903C34.625 14.6532 35.0363 15.1532 35.0363 16.1129C35.0363 17.2097 34.1492 17.9919 33.1653 17.9919Z" fill="#0E1620" fill-opacity="0.5"/>
</svg>
